<svg width="256" height="256" viewBox="0 0 256 256" fill="none" xmlns="http://www.w3.org/2000/svg">
<path d="M0 0H256V222L77.5 255.5L0 222V0Z" fill="#FFD400"/>
<path d="M101.487 72.3233H113.779V126.308H101.487V72.3233ZM140.967 71.92C133.491 71.92 128.19 72.4024 124.405 73.0508V126.308H136.547V107.006C137.681 107.164 139.118 107.251 140.729 107.251C147.958 107.251 154.148 105.479 158.33 101.549C161.544 98.4971 163.313 94.0215 163.313 88.7313C163.313 83.4491 160.972 78.9735 157.528 76.2454C153.91 73.3592 148.513 71.92 140.967 71.92ZM140.633 97.8645C138.872 97.8645 137.578 97.7854 136.539 97.5403V81.6146C137.419 81.3774 139.11 81.1323 141.609 81.1323C147.712 81.1323 151.172 84.0976 151.172 89.0556C151.172 94.5829 147.148 97.8645 140.633 97.8645ZM128 35C91.5441 35 62 64.4396 62 100.759C62 137.078 128 195 128 195C128 195 194 137.086 194 100.767C194 64.4475 164.456 35 128 35ZM128.167 140.747C103.963 140.747 84.3465 121.192 84.3465 97.0658C84.3465 72.948 103.971 53.4007 128.167 53.4007C152.378 53.4007 171.987 72.9559 171.987 97.0658C171.987 121.184 152.37 140.747 128.167 140.747Z" fill="#171E28"/>
</svg>
