<svg width="256" height="256" viewBox="0 0 256 256" fill="none" xmlns="http://www.w3.org/2000/svg">
<rect width="256" height="256" rx="64" fill="#FFD400"/>
<path d="M96.2651 76.788H110.978V141.569H96.2651V76.788ZM143.521 76.304C134.573 76.304 128.228 76.8829 123.697 77.661V141.569H138.23V118.407C139.588 118.596 141.308 118.701 143.236 118.701C151.889 118.701 159.298 116.575 164.304 111.859C168.151 108.197 170.269 102.826 170.269 96.4776C170.269 90.139 167.467 84.7682 163.344 81.4945C159.013 78.031 152.554 76.304 143.521 76.304ZM143.122 107.437C141.013 107.437 139.465 107.342 138.221 107.048V87.9375C139.275 87.6529 141.298 87.3587 144.29 87.3587C151.595 87.3587 155.736 90.9171 155.736 96.8667C155.736 103.499 150.92 107.437 143.122 107.437ZM128 32C84.3633 32 49 67.3275 49 110.91C49 154.493 128 224 128 224C128 224 207 154.503 207 110.92C207 67.337 171.637 32 128 32ZM128.199 158.896C99.2287 158.896 75.7481 135.43 75.7481 106.479C75.7481 77.5376 99.2382 54.0809 128.199 54.0809C157.18 54.0809 180.651 77.5471 180.651 106.479C180.651 135.42 157.17 158.896 128.199 158.896Z" fill="#171E28"/>
</svg>
